{"title":"Howard the Duck (1986) 720p","uid":11500371,"size":4149625506,"categoryP":"video","categoryS":"hd___movies","magnet":"?xt=urn:btih:0ae6acbb072469098f40fa2cc6bdc81934fa0b0b&amp;dn=Howard+the+Duck+%281986%29+720p&amp;tr=udp%3A%2F%2Ftracker.openbittorrent.com%3A80&amp;tr=udp%3A%2F%2Fopen.demonii.com%3A1337&amp;tr=udp%3A%2F%2Ftracker.coppersurfer.tk%3A6969&amp;tr=udp%3A%2F%2Fexodus.desync.com%3A6969","seeders":8,"leechers":0,"uploader":"AlienMethod","files":7,"time":1416327380,"description":"Stax Double-Encode/x264mp4\nNoise/Sharpening Video Filtered\nAAC &amp; AC3 Audio Tracks\nEnglish Subs Incl.\n\n&quot;A sarcastic humanoid duck is pulled from his homeworld to Earth where he must stop an alien invader.&quot;\n\n\n\nVideo\nID : 1\nFormat : AVC\nFormat/Info : Advanced Video Codec\nFormat profile : &lt;a class=&quot;__cf_email__&quot; href=&quot;/cdn-cgi/l/email-protection&quot; data-cfemail=&quot;125a7b757a525e263c22&quot;&gt;[email&amp;#160;protected]&lt;/a&gt;&lt;script cf-hash='f9e31' type=&quot;text/javascript&quot;&gt;\n/* &lt;![CDATA[ */!function(){try{var t=&quot;currentScript&quot;in document?document.currentScript:function(){for(var t=document.getElementsByTagName(&quot;script&quot;),e=t.length;e--;)if(t[e].getAttribute(&quot;cf-hash&quot;))return t[e]}();if(t&amp;&amp;t.previousSibling){var e,r,n,i,c=t.previousSibling,a=c.getAttribute(&quot;data-cfemail&quot;);if(a){for(e=&quot;&quot;,r=parseInt(a.substr(0,2),16),n=2;a.length-n;n+=2)i=parseInt(a.substr(n,2),16)^r,e+=String.fromCharCode(i);e=document.createTextNode(e),c.parentNode.replaceChild(e,c)}}}catch(u){}}();/* ]]&gt; */&lt;/script&gt;\nFormat settings, CABAC : Yes\nFormat settings, ReFrames : 8 frames\nCodec ID : avc1\nCodec ID/Info : Advanced Video Coding\nDuration : 1h 50mn\nBit rate : 4 426 Kbps\nMaximum bit rate : 20.7 Mbps\nWidth : 1 280 pixels\nHeight : 688 pixels\nDisplay aspect ratio : 1.85:1\nFrame rate mode : Constant\nFrame rate : 23.976 fps\nColor space : YUV\nChroma subsampling : 4:2:0\nBit depth : 8 bits\nScan type : Progressive\nBits/(Pixel*Frame) : 0.210\nStream size : 3.42 GiB (88%)\nTitle : howard.the.duck(encode)_track1_und.h264\nWriting library : x264 core 142 r2479 dd79a61\nEncoded date : UTC 2014-11-18 04:50:00\nTagged date : UTC 2014-11-18 04:50:18\n\nAudio #1\nID : 2\nFormat : AAC\nFormat/Info : Advanced Audio Codec\nFormat profile : LC\nCodec ID : 40\nDuration : 1h 50mn\nBit rate mode : Variable\nBit rate : 129 Kbps\nMaximum bit rate : 164 Kbps\nChannel(s) : 2 channels\nChannel positions : Front: L R\nSampling rate : 48.0 KHz\nCompression mode : Lossy\nStream size : 102 MiB (3%)\nTitle : howard.the.duck.1986.AAC.m4a\nEncoded date : UTC 2014-11-18 04:50:15\nTagged date : UTC 2014-11-18 04:50:18\n\nAudio #2\nID : 3\nFormat : AC-3\nFormat/Info : Audio Coding 3\nMode extension : CM (complete main)\nFormat settings, Endianness : Big\nCodec ID : ac-3\nDuration : 1h 50mn\nBit rate mode : Constant\nBit rate : 448 Kbps\nChannel(s) : 2 channels\nChannel positions : Front: L R\nSampling rate : 48.0 KHz\nBit depth : 16 bits\nCompression mode : Lossy\nStream size : 354 MiB (9%)\nTitle : howard.the.duck.1986.AC3.ac3\nEncoded date : UTC 2014-11-18 04:50:16\nTagged date : UTC 2014-11-18 04:50:18\n\nm/ AM m/","torrent":{"xt":"urn:btih:0ae6acbb072469098f40fa2cc6bdc81934fa0b0b","amp;dn":"Howard+the+Duck+%281986%29+720p","amp;tr":["udp%3A%2F%2Ftracker.openbittorrent.com%3A80","udp%3A%2F%2Fopen.demonii.com%3A1337","udp%3A%2F%2Ftracker.coppersurfer.tk%3A6969","udp%3A%2F%2Fexodus.desync.com%3A6969"],"infoHash":"0ae6acbb072469098f40fa2cc6bdc81934fa0b0b","infoHashBuffer":{"type":"Buffer","data":[10,230,172,187,7,36,105,9,143,64,250,44,198,189,200,25,52,250,11,11]},"announce":[],"urlList":[]}}